<?xml version="1.0" encoding="utf-8"?>
<!-- Generator: Adobe Illustrator 25.0.1, SVG Export Plug-In . SVG Version: 6.00 Build 0)  -->
<svg version="1.1" id="Layer_1" xmlns="http://www.w3.org/2000/svg" xmlns:xlink="http://www.w3.org/1999/xlink" x="0px" y="0px"
	 viewBox="0 0 229.4 200" style="enable-background:new 0 0 229.4 200;" xml:space="preserve">
<style type="text/css">
	.st0{fill:#2760A3;}
	.st1{fill:#FFFFFF;}
	.st2{fill:#FF9D00;}
</style>
<g>
	<path class="st0" d="M177.5,144.4c0,0-9.3-24.1-13.1-34.1c6.5-9.4,10.3-20.7,10.3-33c0-32-25.9-57.9-57.9-57.9
		c-32,0-57.9,25.9-57.9,57.9s25.9,57.9,57.9,57.9c10.1,0,19.5-2.6,27.8-7.1L177.5,144.4z"/>
	<path class="st0" d="M185.5,88.1c0-4.2,0-8.5,0-12.7c0-8.5-1.7-16.6-4.9-24.5c-3.1-7.7-7.5-14.5-13.2-20.6
		C157,19.4,144.5,12.5,129.7,9.7c-5.4-1-10.8-1.4-16.3-1C99.1,9.5,86.2,14.4,75,23.5c-10.9,8.8-18.4,20-22.7,33.4
		c-1.5,4.6-2.5,9.4-2.9,14.3c-0.1,1.1-0.1,2.1-0.1,3.2c0,9.7,0,19.4,0,29c0,0.7-0.1,0.9-0.9,0.9c-2.6-0.1-5.2-0.1-7.9-0.2
		c-2.5-0.1-4.6-1.2-6.5-2.7c-3.3-2.7-5.3-6.3-6.8-10.2c-1.7-4.4-2.5-9-2.7-13.7c-0.3-6.5,0.6-12.7,3-18.8c1.5-3.8,3.6-7.2,6.9-9.7
		c2.2-1.7,4.6-2.6,7.4-2.5c1.5,0.1,3,0,4.6,0c0.4,0,0.7-0.1,0.9-0.5c4.2-9.7,10.2-18.2,17.9-25.5C75.2,11.1,87,4.9,100.5,1.8
		c4.7-1.1,9.4-1.6,14.2-1.8c13.2-0.5,25.7,2.4,37.4,8.4c6.2,3.2,11.9,7.2,17.1,12c7.9,7.3,14,16,18.3,25.9c0.2,0.5,0.5,0.6,0.9,0.6
		c1.9,0,3.8-0.1,5.7,0.1c2.7,0.2,5,1.5,7,3.3c3.3,3,5.3,6.9,6.7,11.1c1.4,4.2,2.1,8.5,2.3,12.9c0.2,6-0.6,11.8-2.7,17.4
		c-1.3,3.5-3.1,6.8-5.9,9.5c-2.5,2.5-5.5,3.8-9.1,3.7c-2.1-0.1-4.2,0-6.3,0c-0.6,0-0.7-0.2-0.7-0.8
		C185.5,98.8,185.5,93.5,185.5,88.1z"/>
	<path class="st1" d="M115.5,95.9l8.3-10.1c0,0,2.2-1.8,4.1,0c1.9,1.8,0.1,4.7-1.1,6.4c-1.3,1.7-8.7,10.5-10.5,15.7
		c-1.8,5.2-3.3,12.1-8.7,12.2c-5.4,0.1-8.5,0-8.5,0s-8-0.9-9.6-7.3c-1.5-6.4-3.4-10.3-4.5-12.6c-1-2.3-2.2-7.8-3.4-9.3
		c-1.3-1.5-2.6-5.1,1.1-5.1c3.7,0,6.6,3.7,7.9,6.6c1.3,2.9,1.3,5.5,2.6,5.2c1.3-0.3,1.4-1.5,1.9-4.7c0.5-3.2,0.6-13.6,1.3-16.3
		c0.6-2.7,1.7-5.9,4.2-5.7c2.6,0.1,2.4,2.9,2.4,4.5c0,1.5-0.5,14.4-0.5,14.4l4.1-15.9c0,0,1.5-5,5.1-3.8c3.6,1.1,1,5.2,0.6,8.3
		c-0.4,3.1-2,10.5-2,10.5l3.6-11.6c0,0,1.3-3.6,4.2-2.3c2.9,1.3,1.5,4.5,1.1,6.9c-0.4,2.4-2.9,9.3-2.9,10.2
		C116.3,92.9,115.5,95.9,115.5,95.9z"/>
	<path class="st1" d="M160.3,56.4c-6.5,0-11.6,6.5-13.8,11.6c-2.2,5.1-2.2,9.6-4.5,9.2c-2.2-0.4-2.5-2.7-3.3-8.3
		c-0.9-5.6-1.7-23.8-2.2-28.6c-0.5-5.2-1.9-10.2-6.4-10c-4.5,0.2-5.3,5.1-5.3,7.7c0,2.7,0.9,25.2,0.9,25.2l-7.1-27.9
		c0,0-2.7-8.7-8.9-6.7c-6.3,2-1.8,9.2-1.1,14.5c0.7,5.4,3.6,18.3,3.6,18.3l-7.1-18c0,0-4.6-7.1-9.3-4.5c-4.9,2.8-3.5,7.4-1.3,11.7
		c1.7,3.5,6.2,12.7,7.1,15.6c1.3,0.2,2.5,0.7,3.5,1.5c1.6-1.7,3.6-2.6,5.8-2.6c0.8,0,1.6,0.1,2.4,0.4c2.3,0.7,3.9,2.3,4.7,4.4
		c0.7,0.1,1.4,0.3,2.1,0.6c5.3,2.3,4.7,7.4,4.2,10c0.6-0.1,1.2-0.2,1.9-0.2c1.9,0,3.6,0.7,5,2c1.2,1.1,4.8,5.4-0.6,12.5
		c-0.2,0.2-0.5,0.6-0.8,1c-1.9,2.4-7.6,9.5-8.9,13.3c-0.2,0.6-0.4,1.2-0.6,1.8c-0.5,1.6-1.1,3.5-1.9,5.3c8.6,0.2,13.6,0,13.6,0
		s14.1-1.6,16.7-12.7c2.7-11.2,6-18.1,7.8-22.1c1.8-4,3.8-13.6,6-16.3C164.6,62.7,166.8,56.4,160.3,56.4z"/>
	<path class="st1" d="M91.5,78.2c0.1-1.1,0.2-1.9,0.4-2.6c0.4-1.8,1.6-6.7,5.3-8.5l-8.8-10.7c0,0-3.8-3.1-7.1,0
		c-3.3,3.1-0.2,8.3,2,11.2C84.3,69,87.8,73.2,91.5,78.2z"/>
	<path class="st0" d="M0,179l8.3-3.4c0.7,3.7,4,5.7,7.7,5.7c3.1,0,5.7-1.3,5.7-4c0-6.8-20.3-1.5-20.3-16.1c0-7.7,6.8-12.2,14.9-12.2
		c8,0,13.3,3.2,14.8,9.7l-8.6,2.4c-0.5-3.1-3.2-4.7-6.2-4.7c-3.2,0-5.2,1.7-5.2,4c0,6.8,20.3,1.4,20.3,16.3c0,8-7.2,12.1-15.4,12.1
		C7.6,188.6,1.7,185,0,179z"/>
	<path class="st0" d="M45.3,158.9v29h-9.5v-29H45.3z M40.6,155.8c-2.9,0-5.5-1.8-5.5-5c0-3.3,2.6-5.1,5.5-5.1c2.9,0,5.5,1.8,5.5,5.1
		C46.1,154,43.5,155.8,40.6,155.8z"/>
	<path class="st0" d="M63.7,172.3c2.4,0,3.8-1.5,3.8-4.3c0-2.8-1.4-4.3-3.8-4.3c-2.5,0-3.9,1.5-3.9,4.3
		C59.8,170.6,61.2,172.3,63.7,172.3z M63.1,194.4c5.2,0,8.5-1.1,8.5-3.4c0-1.6-1.4-2.3-3.7-2.3h-8.2c-2,0-3.3,0.9-3.3,2.5
		C56.3,193.3,58.9,194.4,63.1,194.4z M62.7,200c-6.8,0-14.1-1.8-14.1-7.2c0-3,2.6-5,6.3-5.5c-2.4-0.7-4.1-2.6-4.1-5.4
		c0-2.9,2.3-5.1,5.3-5.7c-3.4-1.5-5.5-4.2-5.5-8.1c0-6.4,5.3-9.8,13.1-9.8c3,0,5.7,0.6,7.9,1.7c0.9-1,1.4-2.9,1.5-4.7l7.5,2.5
		c-0.4,3-2.9,4.8-5.3,5.4c1,1.4,1.5,3,1.5,4.9c0,6.5-5.7,9.6-13.2,9.6c-1.4,0-2.8-0.1-4.1-0.4c-0.9,0.4-1.4,1-1.4,1.8
		c0,1,0.9,1.4,2,1.4h7.7c8,0,11.9,3,11.9,8.7C79.8,197.1,71.2,200,62.7,200z"/>
	<path class="st0" d="M92.6,164.5c1.4-4,4.9-6.3,9.3-6.3c5.2,0,9.1,3.2,9.1,9.4v20.3h-9.5v-17.3c0-2.9-1-4.6-3.8-4.6
		c-2.6,0-4.9,1.7-4.9,6.1v15.7h-9.5v-29h8.1L92.6,164.5z"/>
	<path class="st2" d="M126.6,172.9h9.2l-4.5-13.3h-0.1L126.6,172.9z M138.2,180h-14.1l-2.8,8h-9.5l13.9-38.3h11l13.9,38.3H141
		L138.2,180z"/>
	<path class="st2" d="M163.7,175.2c0,4.5,2.3,6.4,5,6.4c3.5,0,5.5-2.9,5.5-8.4c0-5.2-2.1-7.8-5.4-7.8c-2.8,0-5.1,2.3-5.1,6.8V175.2z
		 M163.7,163.9c1.1-3.4,4.4-5.7,8.5-5.7c7.4,0,11.8,6.1,11.8,14.8c0,9.6-5,15.6-12.4,15.6c-4,0-7.2-2.1-8.4-5.6l-1.2,4.9h-7.7v-41.4
		h9.5V163.9z"/>
	<path class="st2" d="M201.2,187.1c-1.3,0.8-3.5,1.4-6.1,1.4c-4.1,0-8-2-8-7.8v-34.2h9.5v32.1c0,1.7,0.7,2.5,2,2.5
		c0.8,0,1.4-0.2,2.2-0.7L201.2,187.1z"/>
	<path class="st2" d="M220.6,170.6c0.1-0.4,0.1-0.9,0.1-1.3c0-2.4-1.4-4.4-4.1-4.4c-2.9,0-4.9,2.2-5.2,5.7H220.6z M221.5,177.9
		l7.7,2.6c-1.8,5.6-7,8.1-12.6,8.1c-8.7,0-14.3-5.6-14.3-14.9c0-9.5,5.5-15.5,14.6-15.5c8.5,0,12.6,5.9,12.6,13
		c0,1.2-0.2,2.9-0.5,3.8h-17.6c0.1,4.1,2.2,6.5,5.5,6.5C219.1,181.6,220.7,180.5,221.5,177.9z"/>
</g>
</svg>
